<?xml version="1.0" standalone="no"?>
<!DOCTYPE svg PUBLIC "-//W3C//DTD SVG 20010904//EN"
 "http://www.w3.org/TR/2001/REC-SVG-20010904/DTD/svg10.dtd">
<svg version="1.0" xmlns="http://www.w3.org/2000/svg"
 width="1085.000000pt" height="1085.000000pt" viewBox="0 0 1085.000000 1085.000000"
 preserveAspectRatio="xMidYMid meet">

<g transform="translate(0.000000,1085.000000) scale(0.100000,-0.100000)"
fill="#000000" stroke="none">
<path d="M5150 10769 c-149 -8 -239 -22 -340 -53 -119 -38 -251 -56 -399 -56
-95 0 -152 -5 -191 -16 -37 -11 -103 -17 -200 -19 -107 -2 -157 -7 -190 -20
-25 -9 -77 -25 -116 -35 -38 -9 -92 -27 -118 -39 -27 -11 -53 -21 -58 -21 -30
0 -506 -204 -635 -272 -136 -72 -321 -172 -353 -193 -19 -12 -73 -46 -120 -75
-200 -125 -464 -321 -650 -483 -130 -113 -451 -433 -512 -511 -22 -28 -61 -75
-86 -104 -178 -205 -403 -536 -572 -841 -153 -277 -264 -521 -360 -793 -21
-58 -42 -112 -46 -120 -5 -7 -11 -168 -14 -358 l-6 -345 -36 -110 c-37 -110
-82 -283 -94 -363 -5 -30 -14 -48 -30 -59 l-24 -15 0 -453 0 -453 24 -15 c22
-15 25 -25 31 -114 3 -54 13 -161 21 -238 9 -77 19 -207 24 -288 9 -152 13
-172 97 -447 19 -61 28 -119 33 -205 6 -105 11 -129 39 -195 18 -41 44 -104
56 -140 91 -255 401 -829 572 -1060 19 -25 78 -105 133 -178 390 -526 848
-942 1480 -1343 178 -114 578 -316 775 -392 231 -90 273 -106 310 -117 45 -13
70 -21 170 -55 39 -13 90 -29 115 -35 25 -6 59 -16 75 -22 17 -5 48 -14 70
-18 22 -5 70 -15 107 -24 74 -16 351 -19 1033 -9 458 7 795 -9 821 -38 22 -24
62 -24 88 -1 16 14 49 22 127 29 58 6 137 20 175 32 158 47 248 61 395 61 78
0 159 5 178 11 20 6 65 21 101 34 36 12 83 28 105 34 44 14 163 60 320 124
269 109 638 300 845 437 36 24 103 68 150 99 126 83 317 230 473 365 147 125
435 409 521 512 28 33 78 93 111 132 33 39 78 94 100 123 22 28 57 74 78 102
88 113 217 306 217 323 0 6 7 17 16 25 23 19 168 273 242 424 8 17 20 37 27
45 6 8 18 31 25 50 7 19 30 69 50 110 48 97 190 451 190 476 0 10 11 46 25 78
23 58 24 64 14 165 -25 246 20 418 160 608 12 15 28 56 37 90 14 56 14 69 0
146 -10 53 -16 141 -16 243 0 118 -4 172 -16 209 -22 68 -23 233 -2 305 35
119 57 317 55 507 -1 130 -6 186 -14 195 -7 6 -13 18 -13 26 0 8 -6 28 -14 45
-36 78 -48 147 -56 322 -9 181 -14 211 -43 296 -9 26 -27 89 -41 140 -40 150
-96 308 -181 509 -15 36 -33 81 -40 100 -33 88 -249 514 -294 580 -10 14 -21
33 -24 44 -4 10 -24 43 -45 75 -21 31 -50 74 -64 96 -31 51 -92 141 -121 180
-12 17 -40 55 -62 85 -197 270 -578 689 -760 835 -33 26 -65 54 -71 61 -20 24
-297 240 -390 304 -251 171 -390 256 -573 351 -53 27 -107 56 -121 64 -54 32
-284 137 -450 205 -66 28 -280 103 -370 131 -147 46 -167 50 -252 49 -96 -1
-317 45 -478 101 -80 27 -95 29 -242 29 -86 0 -218 7 -294 15 -138 16 -353 17
-614 4z m545 -379 c351 -30 453 -44 685 -91 90 -19 263 -59 290 -68 14 -5 43
-14 65 -20 82 -22 370 -116 375 -122 3 -3 30 -14 60 -24 49 -16 134 -52 280
-117 316 -142 676 -361 985 -601 308 -239 649 -585 894 -907 276 -361 521
-796 666 -1180 19 -52 42 -108 49 -125 50 -110 155 -488 204 -735 37 -188 50
-284 83 -625 15 -155 15 -538 0 -685 -6 -63 -15 -158 -21 -210 -20 -200 -31
-273 -70 -456 -54 -252 -142 -562 -202 -709 -11 -27 -32 -84 -48 -125 -47
-125 -153 -355 -219 -475 -15 -27 -44 -81 -65 -120 -22 -38 -45 -77 -52 -86
-8 -8 -14 -20 -14 -26 0 -5 -18 -35 -39 -65 -21 -31 -52 -78 -67 -105 -26 -44
-143 -209 -220 -310 -213 -280 -644 -723 -702 -723 -12 0 -22 2 -22 4 0 8 -31
172 -36 188 -3 11 22 43 77 97 44 44 79 86 77 93 -3 8 -46 20 -108 30 -57 10
-109 22 -114 28 -6 6 -31 49 -56 98 -25 48 -51 87 -58 87 -7 0 -34 -43 -60
-95 -52 -106 -41 -98 -186 -122 -45 -7 -80 -18 -83 -25 -3 -8 29 -50 72 -94
42 -44 74 -86 72 -93 -3 -6 -11 -53 -18 -104 -17 -124 -13 -128 91 -67 49 29
93 48 110 47 28 -1 210 -91 210 -104 0 -18 -216 -190 -391 -311 -117 -81 -266
-174 -379 -236 -36 -19 -92 -50 -125 -68 -118 -65 -308 -153 -331 -153 -20 0
-31 28 -39 102 l-7 67 79 75 c72 70 77 76 62 91 -10 10 -44 20 -85 25 -119 15
-119 15 -177 120 -29 52 -57 95 -62 95 -6 0 -28 -34 -50 -76 -22 -42 -45 -84
-52 -95 -11 -19 -70 -36 -176 -49 -29 -4 -50 -12 -54 -21 -3 -10 22 -43 71
-94 86 -88 81 -67 55 -223 -10 -60 -7 -77 15 -77 13 0 116 51 163 80 20 13 29
11 82 -15 37 -17 61 -35 61 -45 0 -11 -34 -28 -112 -57 -62 -23 -124 -45 -138
-49 -14 -3 -38 -12 -55 -19 -16 -7 -64 -23 -105 -35 -41 -12 -95 -28 -120 -35
-64 -19 -203 -52 -317 -76 -54 -11 -118 -24 -143 -30 -82 -18 -475 -62 -560
-63 l-45 -1 -17 95 c-25 141 -28 133 60 222 71 74 76 81 59 93 -10 7 -46 16
-80 20 -128 13 -124 10 -190 147 -43 91 -56 89 -108 -16 -22 -47 -49 -92 -59
-101 -16 -14 -111 -33 -171 -35 -8 0 -24 -6 -35 -14 -18 -14 -15 -19 60 -95
l80 -80 -17 -106 c-8 -59 -13 -114 -10 -122 5 -14 -9 -15 -118 -10 -225 11
-519 47 -694 86 -22 5 -87 18 -145 30 -58 12 -132 30 -165 41 -33 10 -89 26
-125 35 -36 9 -85 23 -110 32 -25 9 -74 26 -110 38 -117 40 -221 87 -217 99 2
6 35 26 73 44 l69 34 40 -21 c22 -12 60 -32 85 -46 85 -46 90 -39 65 103 -10
55 -12 90 -5 101 5 10 39 46 75 80 81 76 82 93 5 104 -30 5 -80 14 -110 21
l-55 13 -47 97 c-26 53 -54 96 -61 96 -7 0 -36 -44 -63 -97 l-49 -98 -60 -12
c-33 -7 -82 -16 -109 -20 -27 -4 -51 -13 -53 -19 -2 -6 30 -46 72 -89 41 -43
75 -84 75 -91 0 -46 -25 -166 -35 -170 -29 -12 -351 144 -592 287 -190 112
-439 281 -549 373 -34 28 -78 64 -98 79 -59 45 -60 44 126 140 l37 19 90 -46
c50 -25 97 -46 106 -46 19 0 19 42 0 130 -8 36 -14 70 -15 76 0 7 32 45 70 84
92 95 99 108 63 115 -16 3 -44 10 -64 15 -20 6 -49 10 -65 10 -61 0 -71 9
-119 106 -26 52 -51 96 -55 99 -14 9 -37 -22 -73 -98 -49 -102 -40 -98 -220
-123 -27 -4 -51 -12 -53 -19 -3 -7 29 -46 70 -87 85 -83 85 -80 63 -218 -17
-110 -28 -108 -169 28 -276 268 -343 341 -574 630 -145 181 -406 598 -493 787
-10 22 -42 90 -71 150 -88 186 -199 481 -257 685 -38 135 -83 329 -83 358 0
25 4 23 63 -35 115 -114 270 -169 405 -144 85 15 202 71 257 123 90 82 154
231 155 354 0 81 -20 163 -41 169 -31 10 -127 -6 -141 -23 -9 -10 -13 -49 -13
-116 -1 -88 -4 -108 -27 -157 -27 -57 -70 -99 -138 -135 -27 -14 -55 -18 -123
-17 -96 2 -143 20 -199 80 -28 29 -70 121 -83 180 -3 18 -12 36 -18 40 -7 5
-45 8 -86 8 l-75 0 -11 81 c-17 114 -38 391 -34 439 l4 40 145 -2 c80 -1 282
-7 449 -14 350 -14 325 -20 329 85 2 54 0 67 -15 74 -10 5 -74 12 -143 16 -68
3 -128 10 -133 15 -5 5 -8 37 -5 71 3 45 10 66 26 82 20 21 30 22 152 20 150
-3 141 -9 143 95 2 62 0 68 -23 80 -16 8 -67 13 -146 13 -106 0 -128 -3 -183
-26 l-63 -25 -37 23 c-56 36 -88 48 -150 54 -126 14 -253 -52 -307 -157 -13
-27 -29 -49 -36 -49 -15 0 -4 171 27 410 34 261 42 312 69 425 13 55 29 127
36 160 14 63 41 135 50 135 3 0 11 -43 18 -96 14 -107 38 -166 103 -250 76
-99 212 -170 346 -181 107 -9 260 44 344 120 51 45 119 149 126 191 6 36 5 36
-51 61 -79 35 -91 33 -129 -22 -56 -81 -78 -103 -128 -128 -53 -28 -97 -32
-105 -12 -3 8 4 47 16 88 36 133 29 151 -73 175 -51 12 -70 5 -81 -34 -54
-185 -55 -188 -90 -170 -45 24 -88 110 -93 188 -2 30 -6 65 -9 77 -6 29 -63
54 -126 55 -29 1 -49 6 -52 15 -10 25 118 381 220 613 55 126 200 405 262 505
17 28 39 64 48 80 46 83 204 307 321 457 468 601 1128 1125 1808 1435 239 109
540 222 725 272 41 11 100 27 130 36 58 16 223 52 300 65 25 4 79 14 120 23
125 25 549 65 740 70 123 3 268 -2 405 -13z m-4895 -4749 c63 -44 79 -163 23
-177 -27 -7 -201 3 -216 13 -15 9 2 113 24 144 35 49 114 58 169 20z m4722
-5113 c48 -24 87 -46 87 -49 1 -8 -134 -19 -238 -19 -86 0 -131 7 -131 19 1 8
161 90 180 91 8 0 54 -19 102 -42z"/>
<path d="M5555 10248 c-93 -22 -146 -41 -187 -68 -210 -139 -283 -397 -176
-620 39 -80 133 -176 213 -214 31 -16 54 -30 52 -32 -3 -3 -85 -7 -183 -10
-262 -7 -490 -33 -744 -85 -154 -32 -167 -35 -225 -59 -16 -7 -55 -19 -85 -26
-48 -13 -159 -52 -285 -101 -22 -9 -68 -29 -102 -44 -34 -16 -64 -29 -68 -29
-13 0 -223 -106 -272 -137 -29 -18 -54 -33 -57 -33 -7 0 -239 -147 -300 -190
-199 -140 -519 -431 -703 -640 -38 -43 -145 -180 -188 -240 -109 -152 -136
-193 -166 -243 -19 -32 -51 -86 -71 -120 -97 -161 -239 -477 -307 -682 -68
-207 -143 -520 -161 -675 -52 -451 -53 -675 -5 -1082 20 -169 22 -178 94 -478
93 -386 347 -924 595 -1260 62 -84 177 -231 211 -270 36 -42 342 -348 405
-406 43 -39 200 -163 246 -194 12 -8 71 -48 130 -89 60 -41 132 -88 159 -104
92 -55 379 -203 440 -227 33 -13 65 -26 70 -30 6 -4 24 -12 40 -18 17 -5 62
-22 100 -37 77 -28 246 -83 340 -109 59 -16 130 -33 270 -62 381 -79 983 -85
1398 -14 67 12 131 25 142 30 11 4 52 13 90 20 62 10 358 97 410 120 11 5 68
26 126 48 107 41 344 154 454 216 33 19 74 42 90 52 116 66 383 253 495 347
167 141 330 303 508 507 75 85 332 449 332 469 0 3 12 24 27 46 64 92 273 527
273 567 0 8 4 18 9 24 8 8 48 126 112 329 21 68 35 130 77 345 30 150 40 232
53 435 18 282 -5 753 -45 914 -20 78 -30 181 -18 181 5 0 26 -13 47 -30 88
-70 192 -66 460 15 50 15 101 30 115 32 47 10 303 82 308 88 5 5 -6 59 -25
128 -8 29 -82 20 -248 -32 -38 -12 -115 -32 -170 -46 -55 -13 -131 -33 -170
-44 -102 -30 -148 -28 -175 6 -24 31 -22 85 3 111 15 15 135 53 262 83 44 10
105 26 135 35 30 8 110 29 178 46 138 34 135 30 108 133 -17 64 -24 65 -191
21 -71 -18 -193 -50 -270 -70 -304 -80 -351 -105 -398 -217 -25 -61 -34 -55
-65 43 -50 156 -114 332 -128 353 -8 11 -14 33 -14 50 1 26 7 33 53 55 58 28
69 52 42 94 -9 14 -15 39 -13 57 3 32 8 35 319 193 174 89 323 167 332 174 15
13 15 17 1 50 -8 21 -26 48 -40 62 l-24 25 -388 -196 c-213 -108 -397 -200
-409 -203 -23 -7 -41 14 -97 116 -90 161 -254 387 -446 613 -36 43 -66 83 -68
89 -1 7 35 53 81 102 46 49 128 139 183 200 54 61 150 166 212 232 137 148
138 152 52 234 -150 143 -323 166 -477 65 -54 -36 -137 -116 -235 -227 -122
-138 -214 -230 -230 -230 -8 0 -33 13 -54 30 -21 16 -85 62 -141 102 -57 39
-103 77 -103 84 0 13 112 225 160 304 15 25 60 106 100 180 120 224 126 234
148 270 12 19 22 41 22 47 0 16 -99 73 -127 73 -14 0 -29 -12 -43 -35 -12 -19
-28 -35 -36 -35 -8 0 -23 20 -34 45 -35 82 -201 232 -246 223 -9 -2 -28 -25
-43 -53 -15 -27 -52 -93 -81 -145 -67 -119 -97 -175 -147 -270 -21 -41 -70
-130 -107 -197 -77 -140 -76 -139 -173 -99 -247 104 -478 174 -793 241 -36 7
-110 18 -165 24 -55 7 -117 14 -137 17 l-38 6 66 34 c101 52 151 90 193 147
75 101 101 177 101 302 0 141 -37 231 -139 338 -62 66 -139 107 -244 131 -76
18 -103 18 -162 4z m208 -210 c74 -38 143 -131 157 -211 11 -58 -6 -151 -37
-204 -48 -83 -164 -153 -251 -153 -61 0 -156 37 -206 81 -53 47 -96 130 -103
203 -4 43 0 65 27 129 45 108 116 165 233 186 43 8 138 -8 180 -31z m1742
-594 c31 -60 26 -194 -10 -299 -34 -101 -152 -344 -169 -351 -13 -5 -181 80
-192 97 -6 11 9 42 80 169 54 94 143 256 188 340 35 65 58 92 72 87 6 -2 20
-21 31 -43z m1013 -640 c13 -9 22 -22 20 -29 -4 -19 -196 -233 -225 -252 -26
-17 -23 -19 -105 56 -36 33 -37 36 -22 58 30 46 129 145 164 164 45 23 137 25
168 3z m-405 -378 c26 -24 47 -52 47 -62 0 -22 -88 -114 -110 -114 -19 0 -120
87 -120 103 0 19 99 117 118 117 9 0 38 -20 65 -44z m-3178 -596 c193 -53 363
-186 468 -366 66 -111 126 -356 112 -451 -15 -101 -68 -261 -113 -343 -55
-100 -195 -250 -233 -250 -13 0 -40 12 -62 27 -36 25 -41 26 -83 15 -80 -22
-114 -40 -124 -68 -17 -44 -70 -111 -98 -124 -88 -39 -223 -27 -333 30 -32 16
-65 30 -73 30 -8 0 -27 -26 -43 -57 -33 -65 -158 -259 -173 -268 -5 -3 -27 13
-49 35 -28 29 -47 41 -63 38 -29 -4 -36 -40 -14 -73 9 -13 16 -31 16 -39 0 -8
-40 -62 -90 -120 -49 -58 -90 -112 -90 -120 0 -19 57 -66 80 -66 16 0 56 53
83 110 4 8 19 33 32 55 22 36 25 38 25 15 -1 -14 -10 -56 -21 -95 -11 -38 -26
-139 -34 -224 -8 -85 -17 -157 -22 -162 -4 -4 -19 -9 -33 -11 -67 -9 7 -102
103 -129 56 -16 71 -31 63 -63 -8 -34 -34 -38 -246 -34 l-175 3 1 40 c1 22 5
56 9 75 4 20 2 54 -4 77 -11 40 -13 42 -64 50 l-52 8 -8 205 c-8 191 -10 208
-33 247 -29 51 -30 73 -4 141 34 88 27 118 -41 179 l-40 36 23 24 c33 36 184
143 200 143 8 0 36 -22 62 -50 48 -50 71 -59 107 -40 29 16 24 31 -32 93 -59
66 -59 64 29 124 83 55 194 138 220 162 27 27 28 43 1 67 -65 59 -152 234
-165 333 -14 105 42 325 112 445 80 136 174 222 314 289 99 46 168 68 255 81
66 10 223 -3 300 -24z m1831 -949 c22 -8 38 -26 53 -59 20 -42 21 -53 11 -97
-6 -27 -18 -58 -27 -68 -24 -26 -3 -45 27 -24 12 9 30 13 39 9 18 -6 225 -175
284 -230 20 -20 37 -42 37 -50 0 -8 -18 -34 -40 -60 -38 -43 -39 -46 -24 -64
10 -10 21 -18 25 -18 5 0 28 21 52 46 30 31 51 45 65 42 29 -4 222 -158 222
-177 0 -8 -16 -32 -36 -52 -39 -40 -58 -98 -43 -136 7 -18 5 -28 -6 -40 -16
-15 -11 -38 6 -28 13 8 11 -12 -3 -38 -7 -13 -12 -89 -15 -192 -1 -93 -6 -201
-11 -240 l-7 -70 -61 -6 c-33 -3 -66 -9 -72 -13 -15 -9 -15 -56 -1 -92 15 -41
4 -71 -28 -78 -65 -14 -280 -18 -316 -7 -37 13 -50 31 -22 31 24 0 137 63 143
80 3 8 11 22 19 32 16 18 15 18 -48 32 -35 8 -37 16 -49 159 -10 109 -25 200
-51 307 -11 44 -11 80 -1 80 4 0 36 -47 71 -105 37 -63 69 -105 79 -105 21 0
52 29 52 50 0 9 -38 63 -85 119 -47 57 -85 108 -85 113 0 5 10 22 22 39 21 28
21 30 5 46 -16 16 -19 15 -55 -20 -21 -20 -45 -37 -53 -37 -19 0 -48 31 -83
90 -15 25 -47 77 -71 115 -31 50 -44 81 -45 108 0 44 -21 50 -63 17 -54 -42
-130 -70 -193 -70 -34 0 -75 3 -92 6 -43 9 -112 70 -112 98 0 36 -33 70 -103
104 -36 18 -70 32 -76 32 -6 0 -11 5 -11 10 0 6 14 10 30 10 20 0 30 5 30 15
0 10 10 15 33 15 54 0 107 19 100 35 -3 10 1 15 13 15 11 0 28 7 38 15 11 8
28 15 38 15 17 0 98 37 195 88 18 10 47 31 65 48 18 17 41 33 51 37 11 4 17
17 17 37 0 39 47 90 84 90 13 0 28 5 32 11 4 6 9 7 13 2 3 -5 20 -15 37 -22z
m-856 -361 c12 -8 11 -10 -7 -10 -13 0 -23 5 -23 10 0 13 11 13 30 0z m65 -30
c3 -5 -1 -10 -9 -10 -8 0 -18 5 -21 10 -3 6 1 10 9 10 8 0 18 -4 21 -10z
m-2420 -2500 c188 -90 232 -331 90 -488 -55 -61 -124 -92 -207 -92 -81 0 -77
9 -81 -170 l-2 -125 -82 -3 c-74 -3 -83 -1 -93 18 -13 24 -10 857 3 878 6 9
49 12 159 12 146 0 152 -1 213 -30z m602 19 c113 -45 152 -80 195 -176 16 -35
22 -68 22 -123 0 -65 -4 -84 -33 -142 l-33 -66 26 -54 c23 -48 26 -66 28 -193
l3 -140 -90 0 -90 0 -6 115 c-3 63 -9 123 -14 133 -17 40 -119 64 -143 34 -7
-8 -13 -69 -14 -148 l-3 -134 -79 -3 c-44 -2 -83 1 -87 5 -10 10 -13 878 -4
893 9 14 287 13 322 -1z m873 -3 c136 -41 233 -124 296 -252 38 -76 39 -80 39
-188 0 -107 -1 -114 -36 -187 -44 -91 -94 -149 -172 -200 -79 -51 -146 -69
-259 -69 -104 1 -165 20 -251 78 -132 92 -197 213 -197 371 0 138 46 248 140
334 53 50 126 92 195 115 45 15 194 14 245 -2z m680 -7 c16 -29 8 -690 -9
-743 -17 -51 -82 -120 -128 -135 -21 -7 -58 -11 -83 -9 l-45 3 0 70 0 70 33
11 c18 5 43 20 55 32 22 22 22 27 25 360 1 185 5 343 7 350 3 8 26 12 69 12
56 0 67 -3 76 -21z m560 -5 c6 -14 10 -48 10 -75 0 -52 -23 -89 -57 -89 -35 0
-128 -52 -160 -88 -51 -58 -46 -72 30 -73 101 -1 141 -7 154 -26 17 -22 17
-137 1 -150 -7 -6 -55 -13 -107 -16 -126 -8 -135 -17 -81 -84 40 -51 123 -103
162 -103 36 0 58 -36 58 -94 0 -84 -2 -86 -81 -86 -95 0 -162 31 -243 112 -73
74 -108 133 -130 221 -28 113 -15 241 36 341 67 131 216 233 346 235 48 1 53
-1 62 -25z m578 14 c7 -7 12 -41 12 -85 0 -83 -9 -93 -79 -93 -22 0 -43 -6
-48 -12 -4 -7 -10 -168 -13 -358 l-5 -345 -79 -3 c-57 -2 -82 1 -87 10 -5 7
-9 162 -9 344 0 249 -3 334 -12 346 -7 9 -34 18 -62 21 -27 3 -52 11 -57 18
-12 19 -11 126 1 150 10 18 23 19 218 19 149 0 211 -3 220 -12z m693 -2 c180
-55 303 -194 331 -377 27 -180 -50 -350 -205 -450 -78 -51 -146 -69 -255 -69
-104 0 -147 13 -246 72 -133 81 -206 217 -206 382 0 135 39 227 136 324 60 59
81 72 184 113 56 21 197 24 261 5z"/>
<path d="M3366 3814 c-11 -29 -7 -199 6 -212 38 -38 147 9 168 72 15 46 -2
108 -37 135 -33 27 -127 30 -137 5z"/>
<path d="M4021 3816 c-8 -9 -11 -48 -9 -112 3 -97 3 -99 30 -108 42 -15 110
16 131 59 20 42 21 61 6 103 -20 57 -127 96 -158 58z"/>
<path d="M4865 3829 c-92 -14 -164 -67 -203 -149 -54 -111 -28 -238 63 -317
52 -45 96 -63 172 -70 80 -8 137 13 197 72 120 116 118 296 -5 403 -57 50
-144 74 -224 61z"/>
<path d="M7360 3828 c-26 -4 -69 -24 -100 -46 -43 -29 -62 -51 -88 -102 -31
-60 -33 -71 -28 -133 8 -105 56 -175 160 -230 54 -29 184 -31 234 -4 48 26
111 93 133 140 26 57 25 161 0 219 -53 116 -178 179 -311 156z"/>
<path d="M4105 10106 c-33 -7 -71 -18 -84 -25 -22 -12 -23 -17 -18 -70 4 -31
20 -110 36 -176 16 -66 52 -235 81 -375 28 -140 58 -261 65 -269 11 -12 27
-12 92 -3 125 18 158 24 163 31 3 3 23 15 45 26 71 35 171 144 213 231 36 76
37 83 37 184 -1 96 -3 112 -34 182 -18 44 -51 99 -76 125 -46 52 -153 120
-219 140 -51 16 -221 15 -301 -1z m301 -201 c102 -57 144 -128 144 -242 0 -91
-13 -130 -57 -179 -56 -61 -97 -86 -135 -82 -38 3 -32 -10 -82 203 -57 242
-67 311 -49 328 3 4 31 7 61 7 44 0 67 -7 118 -35z"/>
<path d="M3319 9835 c-26 -13 -49 -30 -52 -38 -3 -8 4 -33 14 -57 24 -54 14
-69 -34 -52 -69 25 -183 10 -295 -38 -29 -12 -52 -27 -52 -33 0 -6 21 -54 46
-107 61 -126 177 -360 192 -385 6 -11 45 -91 86 -177 42 -87 81 -158 88 -158
23 0 137 55 138 66 0 13 -100 225 -218 461 -45 90 -79 170 -76 178 8 20 33 19
100 -6 44 -17 75 -39 134 -98 87 -87 123 -140 208 -301 43 -82 66 -116 80
-118 24 -4 121 43 128 62 4 10 -229 501 -368 776 -28 55 -53 60 -119 25z"/>
<path d="M2312 9225 c-53 -60 -81 -121 -100 -221 -14 -75 -14 -89 1 -164 22
-113 58 -182 136 -260 150 -148 372 -181 554 -82 76 41 78 50 29 116 -49 64
-65 68 -150 36 -89 -34 -223 -18 -230 27 -2 14 12 32 50 61 29 22 66 55 83 72
l29 31 -19 35 c-26 49 -80 95 -102 87 -10 -3 -40 -25 -68 -48 -116 -97 -135
-95 -135 15 0 69 21 125 71 188 26 34 25 43 -21 101 -52 66 -74 67 -128 6z"/>
<path d="M1575 8538 c-51 -60 -84 -119 -101 -180 -16 -62 -18 -183 -3 -248 39
-174 198 -323 386 -361 54 -11 75 -11 147 3 120 23 188 59 274 145 69 70 84
99 64 129 -10 16 -102 84 -113 84 -5 0 -36 -26 -68 -59 -83 -82 -136 -106
-231 -104 -119 2 -189 41 -247 141 -24 41 -28 57 -28 127 1 89 15 128 78 214
9 13 17 31 17 40 0 28 -96 111 -129 111 -5 0 -26 -19 -46 -42z"/>
<path d="M957 7607 c-18 -14 -47 -97 -47 -136 0 -98 92 -215 193 -247 55 -17
62 -17 185 0 238 34 257 32 280 -39 11 -35 10 -45 -9 -91 -11 -29 -18 -58 -14
-64 13 -21 107 -62 130 -56 12 3 35 25 51 48 22 34 29 57 32 110 7 111 -38
200 -130 259 -47 30 -62 34 -134 37 -55 3 -115 -3 -189 -18 -124 -24 -154 -21
-191 23 -22 26 -25 38 -21 72 3 22 3 46 -1 52 -4 7 -33 23 -64 37 -44 20 -59
22 -71 13z"/>
<path d="M10026 5748 c-9 -12 -16 -42 -16 -65 0 -33 -5 -45 -22 -54 -13 -7
-128 -15 -317 -20 -349 -10 -376 -13 -395 -41 -16 -23 -11 -113 8 -137 9 -11
61 -12 316 -5 390 11 397 11 411 -3 6 -6 14 -35 17 -63 4 -41 9 -54 28 -62 29
-14 129 -1 145 18 16 19 7 401 -10 433 -10 18 -21 21 -81 21 -60 0 -71 -3 -84
-22z"/>
<path d="M9262 4882 c-7 -5 -19 -40 -27 -78 -18 -86 -14 -91 86 -110 40 -7 77
-18 82 -23 13 -13 -12 -138 -30 -153 -10 -8 -30 -8 -77 0 -114 21 -112 22
-126 -58 -7 -39 -10 -77 -7 -84 3 -8 25 -17 49 -21 24 -3 57 -10 73 -15 45
-12 171 -36 340 -66 82 -14 153 -28 157 -30 7 -5 30 -9 183 -35 105 -18 116
-7 139 134 15 94 8 153 -30 237 -55 123 -176 192 -399 230 -109 18 -348 65
-385 75 -8 3 -21 1 -28 -3z m458 -262 c8 -4 34 -11 57 -15 51 -8 116 -53 138
-94 20 -39 20 -87 0 -95 -17 -6 -247 27 -307 44 -21 6 -40 14 -42 19 -10 15
16 136 31 148 16 12 93 8 123 -7z"/>
<path d="M9135 3235 c-52 -108 -56 -111 -168 -121 -76 -7 -107 -17 -107 -36 0
-6 26 -37 58 -67 101 -98 95 -84 77 -195 -8 -53 -15 -103 -15 -111 0 -26 38
-17 129 32 l87 47 98 -53 c57 -31 102 -49 107 -44 5 5 3 44 -6 93 -23 130 -24
126 60 210 41 41 75 82 75 92 0 13 -12 18 -47 23 -106 13 -166 25 -177 34 -6
5 -31 50 -56 100 -25 50 -50 91 -57 91 -7 0 -33 -43 -58 -95z"/>
<path d="M1460 3229 c-50 -103 -54 -106 -167 -116 -46 -4 -82 -12 -95 -22 -19
-16 -19 -17 29 -62 26 -25 62 -61 79 -80 29 -34 30 -38 23 -95 -24 -176 -24
-164 -1 -164 12 0 58 20 103 45 45 25 86 45 91 45 5 0 39 -16 76 -36 124 -68
123 -67 135 -55 7 7 7 22 -2 52 -7 22 -15 71 -18 108 l-6 68 77 77 c42 43 76
82 76 87 0 15 -38 26 -120 33 -41 4 -84 13 -95 20 -11 7 -40 52 -64 100 -28
54 -51 86 -61 86 -10 0 -31 -32 -60 -91z"/>
</g>
</svg>
